<svg width="25" height="25" viewBox="0 0 25 25" fill="none" xmlns="http://www.w3.org/2000/svg">
<path fill-rule="evenodd" clip-rule="evenodd" d="M13.5056 20.5085V20.1024C13.5089 18.9468 14.4449 18.0108 15.6005 18.0075H18.9139C20.0695 18.0108 21.0054 18.9468 21.0087 20.1024V20.5085C21.0087 20.7848 20.7848 21.0088 20.5085 21.0088H14.0058C13.7296 21.0088 13.5056 20.7848 13.5056 20.5085Z" stroke="white" stroke-width="1.5" stroke-linecap="round" stroke-linejoin="round"/>
<path fill-rule="evenodd" clip-rule="evenodd" d="M15.2564 13.4976C15.2608 12.3937 16.1585 11.5019 17.2625 11.5048C18.3665 11.5077 19.2595 12.4043 19.258 13.5083C19.2566 14.6123 18.3612 15.5065 17.2572 15.5065C16.7252 15.5065 16.215 15.2946 15.8396 14.9176C15.4641 14.5406 15.2543 14.0297 15.2564 13.4976V13.4976Z" stroke="white" stroke-width="1.5" stroke-linecap="round" stroke-linejoin="round"/>
<path d="M3.00122 19.0079C3.00122 20.1129 3.89702 21.0087 5.00205 21.0087" stroke="white" stroke-width="1.5" stroke-linecap="round" stroke-linejoin="round"/>
<path d="M3.00125 16.0067V19.0079" stroke="white" stroke-width="1.5" stroke-linecap="round" stroke-linejoin="round"/>
<path d="M9.00374 21.0088H5.00208" stroke="white" stroke-width="1.5" stroke-linecap="round" stroke-linejoin="round"/>
<path d="M3.00122 19.0079C3.00122 20.1129 3.89702 21.0087 5.00205 21.0087" stroke="white" stroke-width="1.5" stroke-linecap="round" stroke-linejoin="round"/>
<path d="M3.00125 16.0067V19.0079" stroke="white" stroke-width="1.5" stroke-linecap="round" stroke-linejoin="round"/>
<path d="M9.00374 21.0088H5.00208" stroke="white" stroke-width="1.5" stroke-linecap="round" stroke-linejoin="round"/>
<path d="M3.00122 19.0079C3.00122 20.1129 3.89702 21.0087 5.00205 21.0087" stroke="white" stroke-width="1.5" stroke-linecap="round" stroke-linejoin="round"/>
<path d="M3.00125 16.0067V19.0079" stroke="white" stroke-width="1.5" stroke-linecap="round" stroke-linejoin="round"/>
<path d="M10.0042 21.0088H5.00208" stroke="white" stroke-width="1.5" stroke-linecap="round" stroke-linejoin="round"/>
<path fill-rule="evenodd" clip-rule="evenodd" d="M3.00122 12.005V11.5988C3.00452 10.4432 3.9405 9.50726 5.09609 9.50397H8.40947C9.56507 9.50726 10.501 10.4432 10.5043 11.5988V12.005C10.5043 12.2813 10.2804 12.5052 10.0041 12.5052H3.50143C3.22517 12.5052 3.00122 12.2813 3.00122 12.005Z" stroke="white" stroke-width="1.5" stroke-linecap="round" stroke-linejoin="round"/>
<path fill-rule="evenodd" clip-rule="evenodd" d="M4.75197 4.99409C4.7564 3.89011 5.65415 2.99832 6.75813 3.00126C7.86211 3.00421 8.7551 3.90076 8.75364 5.00475C8.75217 6.10873 7.8568 7.00292 6.75282 7.00292C6.22077 7.00292 5.71064 6.79103 5.33518 6.41407C4.95972 6.03711 4.74986 5.52613 4.75197 4.99409V4.99409Z" stroke="white" stroke-width="1.5" stroke-linecap="round" stroke-linejoin="round"/>
<path d="M21.0088 5.03309C21.0088 3.92806 20.113 3.03226 19.0079 3.03226" stroke="white" stroke-width="1.5" stroke-linecap="round" stroke-linejoin="round"/>
<path d="M21.0088 9.00373V5.03308" stroke="white" stroke-width="1.5" stroke-linecap="round" stroke-linejoin="round"/>
<path d="M12.005 3.03225H19.0079" stroke="white" stroke-width="1.5" stroke-linecap="round" stroke-linejoin="round"/>
</svg>
