<svg width="25" height="25" viewBox="0 0 25 25" fill="none" xmlns="http://www.w3.org/2000/svg">
<g id="clock/clock-2">
<path id="Union" fill-rule="evenodd" clip-rule="evenodd" d="M15.6001 6.24414H8.6001C7.21939 6.24414 6.1001 7.36343 6.1001 8.74414V15.7441C6.1001 17.1249 7.21939 18.2441 8.6001 18.2441H15.6001C16.9808 18.2441 18.1001 17.1249 18.1001 15.7441V8.74414C18.1001 7.36343 16.9808 6.24414 15.6001 6.24414ZM8.6001 4.24414C6.11482 4.24414 4.1001 6.25886 4.1001 8.74414V15.7441C4.1001 18.2294 6.11482 20.2441 8.6001 20.2441H15.6001C18.0854 20.2441 20.1001 18.2294 20.1001 15.7441L20.1001 12.2441C20.6524 12.2441 21.1001 11.7964 21.1001 11.2441V10.2441C21.1001 9.69186 20.6524 9.24414 20.1001 9.24414L20.1001 8.74414C20.1001 6.25886 18.0854 4.24414 15.6001 4.24414H8.6001ZM10.323 7.54393L11.6171 12.3736C11.682 12.6159 11.9165 12.7726 12.1653 12.7399C12.4141 12.7071 12.6001 12.4951 12.6001 12.2442V8.49415H11.6129L11.2889 7.28511L10.323 7.54393Z" fill="white"/>
</g>
</svg>
