<svg width="25" height="25" viewBox="0 0 25 25" fill="none" xmlns="http://www.w3.org/2000/svg">
<g id="clock/clock-3">
<path id="Union" fill-rule="evenodd" clip-rule="evenodd" d="M16.2002 6.24414H8.2002C7.09563 6.24414 6.2002 7.13957 6.2002 8.24414V16.2441C6.2002 17.3487 7.09563 18.2441 8.2002 18.2441H16.2002C17.3048 18.2441 18.2002 17.3487 18.2002 16.2441V8.24414C18.2002 7.13957 17.3048 6.24414 16.2002 6.24414ZM8.2002 4.24414C5.99106 4.24414 4.2002 6.035 4.2002 8.24414V16.2441C4.2002 18.4533 5.99106 20.2441 8.2002 20.2441H16.2002C18.4093 20.2441 20.2002 18.4533 20.2002 16.2441L20.2002 12.2441C20.7525 12.2441 21.2002 11.7964 21.2002 11.2441V10.2441C21.2002 9.69186 20.7525 9.24414 20.2002 9.24414L20.2002 8.24414C20.2002 6.035 18.4093 4.24414 16.2002 4.24414H8.2002ZM12.7002 7.24413V11.7441H16.2002V12.7441H12.4502C12.036 12.7441 11.7002 12.4083 11.7002 11.9941V7.24413H12.7002Z" fill="white"/>
</g>
</svg>
