<svg width="17" height="17" viewBox="0 0 17 17" fill="none" xmlns="http://www.w3.org/2000/svg">
<path d="M14.1667 6.375H7.79167C7.00926 6.375 6.375 7.00926 6.375 7.79167V14.1667C6.375 14.9491 7.00926 15.5833 7.79167 15.5833H14.1667C14.9491 15.5833 15.5833 14.9491 15.5833 14.1667V7.79167C15.5833 7.00926 14.9491 6.375 14.1667 6.375Z" stroke="#B8BDC7" stroke-width="1.5" stroke-linecap="round" stroke-linejoin="round"/>
<path d="M3.54102 10.6248H2.83268C2.45696 10.6248 2.09662 10.4756 1.83095 10.2099C1.56527 9.94423 1.41602 9.58389 1.41602 9.20817V2.83317C1.41602 2.45745 1.56527 2.09711 1.83095 1.83144C2.09662 1.56576 2.45696 1.4165 2.83268 1.4165H9.20768C9.58341 1.4165 9.94374 1.56576 10.2094 1.83144C10.4751 2.09711 10.6243 2.45745 10.6243 2.83317V3.5415" stroke="#B8BDC7" stroke-width="1.5" stroke-linecap="round" stroke-linejoin="round"/>
</svg>
