<svg width="25" height="25" viewBox="0 0 25 25" fill="none" xmlns="http://www.w3.org/2000/svg">
<g id="Decentralized">
<g id="Vector">
<path fill-rule="evenodd" clip-rule="evenodd" d="M15.5497 6.36909L11.937 10.9915L6.41996 7.84981L12.4097 4.52593L15.5497 6.36909ZM12.8825 2.50647L17.8275 5.19509C18.3821 5.49666 18.272 6.23041 17.8672 6.71487L12.9358 12.9153C12.6256 13.2865 12.0116 13.4335 11.5912 13.1941L4.03006 8.59425C3.71775 8.41641 3.5249 8.08465 3.5249 7.72526V7.70213C3.5249 7.33879 3.72198 7.00404 4.03968 6.82774L11.9196 2.51062C12.2187 2.34463 12.5819 2.34306 12.8825 2.50647Z" fill="white"/>
<path fill-rule="evenodd" clip-rule="evenodd" d="M19.3999 10.4178V15.6019L19.2928 15.6554L16.4987 14.0802L19.3999 10.4178ZM19.9528 15.3255C19.9525 15.3256 19.9522 15.3258 19.9519 15.3259L19.9528 15.3255ZM21.3999 16.22V7.82838C21.3999 7.50143 21.2401 7.19513 20.9719 7.00812L20.8272 6.90723C20.3936 6.60486 19.7996 6.69219 19.4713 7.10656L14.2905 13.647C13.94 14.0895 14.0249 14.7342 14.4781 15.0708L18.5939 17.6276C18.8966 17.8524 19.3 17.8878 19.6373 17.7192L20.8471 17.1144C21.1859 16.945 21.3999 16.5988 21.3999 16.22Z" fill="white"/>
<path fill-rule="evenodd" clip-rule="evenodd" d="M12.9375 21.9975C12.6407 22.1515 12.2865 22.147 11.9937 21.9855L3.91682 17.5293C3.59792 17.3533 3.3999 17.0179 3.3999 16.6537V11.8011C3.3999 11.0269 4.24198 10.5463 4.9086 10.9402L11.3809 14.7644L16.831 18.2923C17.475 18.7091 17.4292 19.6659 16.7484 20.0193L12.9375 21.9975ZM14.3004 19.0366L12.4912 19.9758L5.3999 16.0633V13.5535L10.3284 16.4655L14.3004 19.0366ZM12.9599 20.2343C12.9595 20.2341 12.9591 20.2339 12.9588 20.2337L12.9599 20.2343Z" fill="white"/>
</g>
</g>
</svg>
