<svg width="512" height="512" viewBox="0 0 256 512" version="1.1" xmlns="http://www.w3.org/2000/svg" xmlns:xlink="http://www.w3.org/1999/xlink">
<g id="Canvas" transform="matrix(32 0 0 32 128 4416)">
<g id="Up">
<g id="Bounding Box" opacity="0.01">
<use xlink:href="#path0_fill" transform="translate(-4 -138)" fill="#FFFFFF"/>
</g>
<g id="Combined Shape">
<use xlink:href="#path1_fill" transform="translate(-4 -135)" fill="#F23548"/>
</g>
<g id="Rectangle 9 Copy">
<use xlink:href="#path2_fill" transform="translate(-4 -125)" fill="#F23548"/>
</g>
</g>
</g>
<defs>
<path id="path0_fill" fill-rule="evenodd" d="M 0 0L 16 0L 16 16L 0 16L 0 0Z"/>
<path id="path1_fill" fill-rule="evenodd" d="M 2.75 0C 2.33579 0 2 0.335785 2 0.75L 2 5L 0.81066 5C 0.142482 5 -0.192143 5.80786 0.28033 6.28033L 3.46967 9.46967C 3.76256 9.76257 4.23744 9.76257 4.53033 9.46967L 7.71967 6.28033C 8.19214 5.80786 7.85752 5 7.18934 5L 6 5L 6 0.75C 6 0.335785 5.66421 0 5.25 0L 2.75 0Z"/>
<path id="path2_fill" fill-rule="evenodd" d="M 0 0.5C 0 0.223858 0.223858 0 0.5 0L 7.5 0C 7.77614 0 8 0.223858 8 0.5C 8 0.776142 7.77614 1 7.5 1L 0.5 1C 0.223858 1 0 0.776142 0 0.5Z"/>
</defs>
</svg>
