<svg width="25" height="25" viewBox="0 0 25 25" fill="none" xmlns="http://www.w3.org/2000/svg">
<g id="money/money-payment-1">
<path id="Union" fill-rule="evenodd" clip-rule="evenodd" d="M15.8 8.24414H5.80005C5.80005 9.34871 4.90462 10.2441 3.80005 10.2441V12.2441C4.90462 12.2441 5.80005 13.1396 5.80005 14.2441H15.8C15.8 13.1396 16.6955 12.2441 17.8 12.2441V10.2441C16.6955 10.2441 15.8 9.34871 15.8 8.24414ZM19.8 14.2441V8.24414V7.24414C19.8 6.69186 19.3523 6.24414 18.8 6.24414H17.8H3.80005H2.80005C2.24776 6.24414 1.80005 6.69186 1.80005 7.24414V8.24414V14.2441V15.2441C1.80005 15.7964 2.24776 16.2441 2.80005 16.2441H3.80005H17.8H18.8C19.3523 16.2441 19.8 15.7964 19.8 15.2441V14.2441ZM17.8 13.2441C17.2478 13.2441 16.8 13.6919 16.8 14.2441H17.8V13.2441ZM3.80005 13.2441C4.35233 13.2441 4.80005 13.6919 4.80005 14.2441H3.80005L3.80005 13.2441ZM16.8 8.24414C16.8 8.79643 17.2478 9.24414 17.8 9.24414V8.24414L16.8 8.24414ZM3.80005 8.24414L3.80005 9.24414C4.35233 9.24414 4.80005 8.79643 4.80005 8.24414L3.80005 8.24414ZM8.80005 11.2441C8.80005 10.1396 9.69548 9.24414 10.8 9.24414C11.9046 9.24414 12.8 10.1396 12.8 11.2441C12.8 12.3487 11.9046 13.2441 10.8 13.2441C9.69548 13.2441 8.80005 12.3487 8.80005 11.2441ZM22.675 10.2441H21.8V18.2441H4.80005V19.1191C4.80005 19.7404 5.30373 20.2441 5.92505 20.2441H22.675C23.2964 20.2441 23.8 19.7404 23.8 19.1191V11.3691C23.8 10.7478 23.2964 10.2441 22.675 10.2441Z" fill="white"/>
</g>
</svg>
