<svg width="16" height="16" viewBox="0 0 16 16" fill="none" xmlns="http://www.w3.org/2000/svg">
  <path d="M1 3C1 2.44772 1.44772 2 2 2H14C14.5523 2 15 2.44772 15 3C15 3.55228 14.5523 4 14 4H2C1.44772 4 1 3.55228 1 3Z" fill="currentColor"/>
  <path d="M3 8C3 7.44772 3.44772 7 4 7H12C12.5523 7 13 7.44772 13 8C13 8.55228 12.5523 9 12 9H4C3.44772 9 3 8.55228 3 8Z" fill="currentColor"/>
  <path d="M6 12C5.44772 12 5 12.4477 5 13C5 13.5523 5.44772 14 6 14H10C10.5523 14 11 13.5523 11 13C11 12.4477 10.5523 12 10 12H6Z" fill="currentColor"/>
</svg>
