<svg width="24" height="25" viewBox="0 0 24 25" fill="none" xmlns="http://www.w3.org/2000/svg">
<g id="finance_credit">
<path id="Union" fill-rule="evenodd" clip-rule="evenodd" d="M17 12.2441C16.9763 12.2441 16.9526 12.2439 16.929 12.2433C16.6716 10.4457 15.7313 8.86845 14.3793 7.7829C14.8923 6.86487 15.8737 6.24414 17 6.24414C18.6569 6.24414 20 7.58729 20 9.24414C20 10.901 18.6569 12.2441 17 12.2441ZM12.6565 6.76579C13.5179 5.25936 15.1404 4.24414 17 4.24414C19.7614 4.24414 22 6.48272 22 9.24414C22 12.0056 19.7614 14.2441 17 14.2441C16.9764 14.2441 16.9528 14.244 16.9292 14.2436C16.4442 17.6362 13.5266 20.2441 10 20.2441C6.13401 20.2441 3 17.1101 3 13.2441C3 9.37815 6.13401 6.24414 10 6.24414C10.9403 6.24414 11.8373 6.42954 12.6565 6.76579ZM10 18.2441C7.23858 18.2441 5 16.0056 5 13.2441C5 10.4827 7.23858 8.24414 10 8.24414C12.7614 8.24414 15 10.4827 15 13.2441C15 16.0056 12.7614 18.2441 10 18.2441ZM10 15.7441C8.61929 15.7441 7.5 14.6249 7.5 13.2441C7.5 11.8634 8.61929 10.7441 10 10.7441C11.3807 10.7441 12.5 11.8634 12.5 13.2441C12.5 14.6249 11.3807 15.7441 10 15.7441ZM6.5 13.2441C6.5 11.3111 8.067 9.74414 10 9.74414C11.933 9.74414 13.5 11.3111 13.5 13.2441C13.5 15.1771 11.933 16.7441 10 16.7441C8.067 16.7441 6.5 15.1771 6.5 13.2441Z" fill="white"/>
</g>
</svg>
