<svg width="24" height="24" viewBox="0 0 24 24" fill="none" xmlns="http://www.w3.org/2000/svg">
<circle cx="12" cy="12" r="12" fill="white"/>
<path d="M12 7.26225C12.6825 6.9375 13.4437 6.75 14.25 6.75C17.1495 6.75 19.5 9.1005 19.5 12C19.5 14.8995 17.1495 17.25 14.25 17.25C13.4437 17.25 12.6825 17.0625 12 16.7378" stroke="black" stroke-width="1.5" stroke-linecap="round" stroke-linejoin="round"/>
<path d="M13.4623 8.28769C15.5126 10.3379 15.5126 13.6621 13.4623 15.7123C11.4121 17.7626 8.08794 17.7626 6.03769 15.7123C3.98744 13.6621 3.98744 10.3379 6.03769 8.28769C8.08794 6.23744 11.4121 6.23744 13.4623 8.28769" stroke="black" stroke-width="1.5" stroke-linecap="round" stroke-linejoin="round"/>
<path fill-rule="evenodd" clip-rule="evenodd" d="M9.75 9.75031L12.0002 12.0005L9.75 14.2506L7.49983 12.0005L9.75 9.75031Z" stroke="black" stroke-width="1.49999" stroke-linecap="round" stroke-linejoin="round"/>
</svg>
