<svg width="20" height="18" viewBox="0 0 20 18" fill="none" xmlns="http://www.w3.org/2000/svg">
<path d="M13.0769 10.777C14.0626 10.4498 15.0728 10.2416 16.1538 10.1206" stroke="white" stroke-width="1.5" stroke-linecap="round" stroke-linejoin="round"/>
<path d="M3.84615 10.1216C4.92718 10.2416 5.93744 10.4508 6.92308 10.778" stroke="white" stroke-width="1.5" stroke-linecap="round" stroke-linejoin="round"/>
<path d="M16.1538 6.01901C15.0728 6.13901 14.0626 6.34824 13.0769 6.67542" stroke="white" stroke-width="1.5" stroke-linecap="round" stroke-linejoin="round"/>
<path d="M6.92308 6.67442C5.93744 6.34724 4.92718 6.13904 3.84615 6.01801" stroke="white" stroke-width="1.5" stroke-linecap="round" stroke-linejoin="round"/>
<path fill-rule="evenodd" clip-rule="evenodd" d="M10 2.95543C7.33949 1.46517 4.96205 0.872351 1.81231 0.770813C1.24 0.751326 0.769231 1.22312 0.769231 1.79645V13.9534C0.769231 14.5082 1.21333 14.9688 1.76821 14.977C4.93949 15.0241 7.32718 15.6088 10 17.18C12.6728 15.6088 15.0605 15.0241 18.2318 14.977C18.7867 14.9688 19.2308 14.5082 19.2308 13.9524V1.79543C19.2308 1.22209 18.76 0.751326 18.1877 0.769787C15.0379 0.872351 12.6605 1.46517 10 2.95543Z" stroke="white" stroke-width="1.5" stroke-linecap="round" stroke-linejoin="round"/>
<path d="M10 2.95441V17.1801" stroke="white" stroke-width="1.5" stroke-linecap="round" stroke-linejoin="round"/>
</svg>
