<svg width="16" height="16" viewBox="0 0 16 16" fill="none" xmlns="http://www.w3.org/2000/svg">
<g id="Tooltip/Hover">
<path id="Vector" d="M8.27734 15C12.1433 15 15.2773 11.866 15.2773 8C15.2773 4.13401 12.1433 1 8.27734 1C4.41135 1 1.27734 4.13401 1.27734 8C1.27734 11.866 4.41135 15 8.27734 15Z" fill="#838386" stroke="#838386" stroke-linecap="round" stroke-linejoin="round"/>
<g id="Vector_2">
<path d="M6.24023 5.89972C6.40481 5.43188 6.72964 5.03739 7.1572 4.78611C7.58476 4.53483 8.08746 4.44297 8.57626 4.52681C9.06505 4.61066 9.50841 4.86478 9.82779 5.24418C10.1472 5.62359 10.322 6.10378 10.3212 6.59972C10.3212 7.99972 8.22123 8.69972 8.22123 8.69972" fill="#838386"/>
<path d="M6.24023 5.89972C6.40481 5.43188 6.72964 5.03739 7.1572 4.78611C7.58476 4.53483 8.08746 4.44297 8.57626 4.52681C9.06505 4.61066 9.50841 4.86478 9.82779 5.24418C10.1472 5.62359 10.322 6.10378 10.3212 6.59972C10.3212 7.99972 8.22123 8.69972 8.22123 8.69972" stroke="black" stroke-linecap="round" stroke-linejoin="round"/>
</g>
<path id="Vector_3" d="M8.27734 11.5H8.28434" stroke="black" stroke-linecap="round" stroke-linejoin="round"/>
</g>
</svg>
