<svg width="19" height="19" viewBox="0 0 19 19" fill="none" xmlns="http://www.w3.org/2000/svg">
<path d="M9.5 18C14.1944 18 18 14.1944 18 9.5C18 4.80558 14.1944 1 9.5 1C4.80558 1 1 4.80558 1 9.5C1 14.1944 4.80558 18 9.5 18Z" fill="#19FF83" stroke="#19FF83" stroke-linecap="round" stroke-linejoin="round"/>
<path d="M7.02637 6.9499C7.22621 6.38182 7.62065 5.90279 8.13983 5.59766C8.65901 5.29253 9.26943 5.181 9.86297 5.2828C10.4565 5.38461 10.9949 5.69319 11.3827 6.1539C11.7705 6.6146 11.9828 7.19769 11.9819 7.7999C11.9819 9.4999 9.43187 10.3499 9.43187 10.3499" fill="#19FF83"/>
<path d="M7.02637 6.9499C7.22621 6.38182 7.62065 5.90279 8.13983 5.59766C8.65901 5.29253 9.26943 5.181 9.86297 5.2828C10.4565 5.38461 10.9949 5.69319 11.3827 6.1539C11.7705 6.6146 11.9828 7.19769 11.9819 7.7999C11.9819 9.4999 9.43187 10.3499 9.43187 10.3499" stroke="black" stroke-linecap="round" stroke-linejoin="round"/>
<path d="M9.5 13.75H9.5085" stroke="black" stroke-linecap="round" stroke-linejoin="round"/>
</svg>
