<svg width="24" height="17" viewBox="0 0 24 17" fill="none" xmlns="http://www.w3.org/2000/svg">
<path d="M16 0.5H8C3.58172 0.5 0 4.08172 0 8.5C0 12.9183 3.58172 16.5 8 16.5H16C20.4183 16.5 24 12.9183 24 8.5C24 4.08172 20.4183 0.5 16 0.5Z" fill="currentColor"/>
<path d="M16 1H8C3.85786 1 0.5 4.35786 0.5 8.5C0.5 12.6421 3.85786 16 8 16H16C20.1421 16 23.5 12.6421 23.5 8.5C23.5 4.35786 20.1421 1 16 1Z" stroke="currentColor"/>
<path d="M12 4.5V8.5" stroke="black" stroke-width="2" stroke-linecap="round" stroke-linejoin="round"/>
<path d="M12 12.5H12.01" stroke="black" stroke-width="2" stroke-linecap="round" stroke-linejoin="round"/>
</svg>
