<svg width="24" height="24" viewBox="0 0 24 24" fill="none" xmlns="http://www.w3.org/2000/svg">
<path fill-rule="evenodd" clip-rule="evenodd" d="M15.0804 6.41698L17.4697 4.36968C17.9258 3.97895 18.5675 3.8894 19.113 4.14038C19.6586 4.39135 20.0081 4.93692 20.0081 5.53743V13.0004C20.0081 17.4205 16.4249 21.0037 12.0048 21.0037V21.0037C7.58468 21.0037 4.00146 17.4205 4.00146 13.0004V5.53743C4.00146 4.93692 4.35102 4.39135 4.89657 4.14038C5.44211 3.8894 6.08384 3.97895 6.53985 4.36968L8.9292 6.41698C10.9192 5.7134 13.0904 5.7134 15.0804 6.41698Z" stroke="white" stroke-width="1.5" stroke-linecap="round" stroke-linejoin="round"/>
<path d="M10.2542 10.7498C10.254 10.8878 10.1421 10.9996 10.004 10.9996C9.86596 10.9995 9.75407 10.8876 9.75401 10.7496C9.75395 10.6115 9.86575 10.4995 10.0038 10.4994C10.0702 10.4993 10.134 10.5256 10.181 10.5726C10.2279 10.6196 10.2543 10.6834 10.2542 10.7498" stroke="white" stroke-width="1.5" stroke-linecap="round" stroke-linejoin="round"/>
<path d="M14.2562 10.7498C14.256 10.8878 14.144 10.9996 14.006 10.9996C13.8679 10.9995 13.756 10.8876 13.756 10.7496C13.7559 10.6115 13.8677 10.4995 14.0057 10.4994C14.0722 10.4993 14.1359 10.5256 14.1829 10.5726C14.2299 10.6196 14.2563 10.6834 14.2562 10.7498" stroke="white" stroke-width="1.5" stroke-linecap="round" stroke-linejoin="round"/>
<path fill-rule="evenodd" clip-rule="evenodd" d="M12.0052 14.501V14.501C11.7289 14.501 11.505 14.2771 11.505 14.0008V14.0008C11.505 13.9087 11.5796 13.8341 11.6717 13.8341H12.3386C12.4307 13.8341 12.5054 13.9087 12.5054 14.0008V14.0008C12.5054 14.2771 12.2814 14.501 12.0052 14.501Z" stroke="white" stroke-width="1.5" stroke-linecap="round" stroke-linejoin="round"/>
<path d="M9.81738 17.1269C10.0575 17.3676 10.3836 17.5027 10.7236 17.5023V17.5023C11.4314 17.5023 12.0051 16.9285 12.0051 16.2207C12.0051 16.7391 12.3174 17.2064 12.7962 17.4047C13.2751 17.6031 13.8263 17.4934 14.1928 17.1269" stroke="white" stroke-width="1.5" stroke-linecap="round" stroke-linejoin="round"/>
<path d="M12.0051 14.501V16.2208" stroke="white" stroke-width="1.5" stroke-linecap="round" stroke-linejoin="round"/>
<path d="M17.0073 12.807L21.009 12.1401" stroke="white" stroke-width="1.5" stroke-linecap="round" stroke-linejoin="round"/>
<path d="M21.009 16.0017L17.0073 15.3347" stroke="white" stroke-width="1.5" stroke-linecap="round" stroke-linejoin="round"/>
<path d="M7.00313 12.807L3.00146 12.1401" stroke="white" stroke-width="1.5" stroke-linecap="round" stroke-linejoin="round"/>
<path d="M3.00146 16.0017L7.00313 15.3347" stroke="white" stroke-width="1.5" stroke-linecap="round" stroke-linejoin="round"/>
</svg>
