<svg width="126" height="137" viewBox="0 0 126 137" fill="none" xmlns="http://www.w3.org/2000/svg">
<mask id="mask0_3685_24138" style="mask-type:alpha" maskUnits="userSpaceOnUse" x="0" y="61" width="126" height="76">
<ellipse cx="63.0002" cy="99.4126" rx="62.0265" ry="37.4297" fill="#4F5664"/>
</mask>
<g mask="url(#mask0_3685_24138)">
<ellipse cx="66.7108" cy="98.4608" rx="83.7889" ry="50.5621" fill="#22252B" fill-opacity="0.5"/>
</g>
<g clip-path="url(#clip0_3685_24138)">
<path d="M18.4814 25.9639C18.4814 24.8621 19.2549 24.4156 20.2091 24.9665L24.2403 27.2939L24.2403 90.6632C24.2403 91.5474 23.6195 91.9058 22.8537 91.4637L18.4814 88.9393L18.4814 25.9639Z" fill="#22252B"/>
<path d="M19.6788 26.1613C18.7247 25.6104 18.7247 24.7172 19.6788 24.1664L59.377 1.24659C60.3312 0.695709 61.8782 0.69571 62.8323 1.24659L65.5492 2.81519C66.8214 3.5497 66.8214 4.74057 65.5492 5.47508L26.4269 28.0624C25.4727 28.6132 23.9258 28.6132 22.9716 28.0624L19.6788 26.1613Z" fill="#22252B"/>
<g filter="url(#filter0_d_3685_24138)">
<path d="M24.5818 26.7996C23.5761 27.3803 23.1367 28.4028 23.1366 31.2455L23.1365 34.9964L23.1347 91.091C23.1347 91.8255 23.6503 92.1232 24.2864 91.7559L65.5821 67.9121C66.2182 67.5448 66.7339 66.6516 66.7339 65.9171L66.7357 9.82251L66.7358 6.07161C66.7359 3.22889 66.2966 2.71385 65.2908 3.29455L62.1956 5.08174L61.9615 5.2169L27.5829 25.0669L24.5818 26.7996Z" fill="url(#paint0_linear_3685_24138)"/>
</g>
</g>
<g clip-path="url(#clip1_3685_24138)">
<path d="M37.3437 36.6238C37.3437 35.1762 38.36 34.5894 39.6137 35.3132L44.9102 38.3712L44.9102 121.632C44.9102 122.794 44.0946 123.264 43.0885 122.684L37.3437 119.367L37.3437 36.6238Z" fill="#383D47"/>
<path d="M38.9164 36.8828C37.6628 36.159 37.6628 34.9855 38.9164 34.2617L91.0757 4.14756C92.3293 3.42376 94.3619 3.42376 95.6156 4.14756L99.1853 6.20853C100.857 7.1736 100.857 8.73828 99.1853 9.70335L47.7827 39.3806C46.529 40.1044 44.4965 40.1044 43.2428 39.3806L38.9164 36.8828Z" fill="#383D47"/>
<g filter="url(#filter1_d_3685_24138)">
<path d="M45.3577 37.7213C44.0363 38.4843 43.459 39.8277 43.4588 43.5627L43.4587 48.491L43.4563 122.193C43.4563 123.158 44.1338 123.55 44.9695 123.067L99.2278 91.7387C100.064 91.2561 100.741 90.0826 100.741 89.1175L100.743 15.4152L100.744 10.4869C100.744 6.75185 100.166 6.07515 98.845 6.83812L94.7782 9.1863L94.4706 9.36388L49.3008 35.4446L45.3577 37.7213Z" fill="#4F5664"/>
<path fill-rule="evenodd" clip-rule="evenodd" d="M72.1008 62.6355C78.3124 59.0493 83.3478 50.3276 83.3478 43.1551C83.3478 35.9826 78.3124 33.0754 72.1008 36.6616C65.8892 40.2479 60.8538 48.9696 60.8538 56.1421C60.8538 63.3146 65.8892 66.2218 72.1008 62.6355ZM72.1008 65.8823C79.8653 61.3995 86.1596 50.4974 86.1596 41.5317C86.1596 32.5661 79.8652 28.9321 72.1008 33.4149C64.3363 37.8977 58.042 48.7998 58.042 57.7654C58.042 66.7311 64.3363 70.3651 72.1008 65.8823ZM72.6142 42.9037C72.1631 43.0674 71.6974 43.3954 71.2752 43.8466C70.8531 44.2977 70.4933 44.852 70.241 45.4401C69.9886 46.0282 69.8548 46.6239 69.8564 47.1528L67.0447 48.7874C67.0412 47.6209 67.3362 46.3069 67.8929 45.0097C68.4495 43.7125 69.2431 42.4899 70.1742 41.4948C71.1053 40.4996 72.1326 39.7763 73.1275 39.4152C74.1224 39.0541 75.0408 39.0714 75.7675 39.4648L75.7711 39.4668C76.2804 39.7466 76.6673 40.2259 76.9011 40.867C77.135 41.508 77.2094 42.2932 77.1186 43.1606L77.1174 43.1718L77.1174 43.1718C76.9603 44.6026 76.334 46.0138 75.775 47.093C75.5097 47.6089 75.2137 48.1318 74.9588 48.5821C74.8992 48.6874 74.8418 48.7887 74.7877 48.8851C74.4785 49.4348 74.2347 49.8862 74.0434 50.311L74.0425 50.3131C73.7129 51.0438 73.5206 51.7906 73.4871 52.4694L73.4871 52.7915L70.6753 54.4148L70.6753 54.0496C70.6753 54.0233 70.6759 53.9967 70.677 53.9698C70.7312 52.6518 71.101 51.1959 71.7432 49.7717C72.0667 49.0535 72.4388 48.3775 72.7612 47.8043C72.8352 47.6728 72.9058 47.5479 72.9736 47.428L72.9736 47.428L72.9737 47.4279L72.9737 47.4279L72.9737 47.4278C73.222 46.9887 73.4321 46.6173 73.6286 46.2349L73.6341 46.2241L73.6342 46.2241C74.0604 45.4018 74.2792 44.8058 74.3304 44.3505C74.3647 44.0165 74.3356 43.7142 74.2455 43.4671C74.1551 43.2193 74.0058 43.0339 73.8092 42.9252C73.48 42.7478 73.0644 42.7404 72.6142 42.9037ZM72.1003 59.3888C72.8768 58.9405 73.5062 57.8503 73.5062 56.9537C73.5062 56.0572 72.8768 55.6938 72.1003 56.142C71.3239 56.5903 70.6944 57.6805 70.6944 58.5771C70.6944 59.4737 71.3239 59.8371 72.1003 59.3888Z" fill="#9BA2B0"/>
</g>
<path d="M54.457 94.575L89.7439 74.202" stroke="#7E889A" stroke-width="3.50226" stroke-linecap="round"/>
<path d="M54.457 101.842L89.7439 81.4694" stroke="#7E889A" stroke-width="3.50226" stroke-linecap="round"/>
</g>
<defs>
<filter id="filter0_d_3685_24138" x="1.33422" y="-15.9927" width="87.2017" height="132.432" filterUnits="userSpaceOnUse" color-interpolation-filters="sRGB">
<feFlood flood-opacity="0" result="BackgroundImageFix"/>
<feColorMatrix in="SourceAlpha" type="matrix" values="0 0 0 0 0 0 0 0 0 0 0 0 0 0 0 0 0 0 127 0" result="hardAlpha"/>
<feOffset dy="2.72507"/>
<feGaussianBlur stdDeviation="10.9003"/>
<feColorMatrix type="matrix" values="0 0 0 0 0.0666667 0 0 0 0 0.0666667 0 0 0 0 0.0705882 0 0 0 1 0"/>
<feBlend mode="normal" in2="BackgroundImageFix" result="effect1_dropShadow_3685_24138"/>
<feBlend mode="normal" in="SourceGraphic" in2="effect1_dropShadow_3685_24138" result="shape"/>
</filter>
<filter id="filter1_d_3685_24138" x="14.8124" y="-18.5033" width="114.574" height="174.001" filterUnits="userSpaceOnUse" color-interpolation-filters="sRGB">
<feFlood flood-opacity="0" result="BackgroundImageFix"/>
<feColorMatrix in="SourceAlpha" type="matrix" values="0 0 0 0 0 0 0 0 0 0 0 0 0 0 0 0 0 0 127 0" result="hardAlpha"/>
<feOffset dy="3.58045"/>
<feGaussianBlur stdDeviation="14.3218"/>
<feColorMatrix type="matrix" values="0 0 0 0 0.0666667 0 0 0 0 0.0666667 0 0 0 0 0.0705882 0 0 0 1 0"/>
<feBlend mode="normal" in2="BackgroundImageFix" result="effect1_dropShadow_3685_24138"/>
<feBlend mode="normal" in="SourceGraphic" in2="effect1_dropShadow_3685_24138" result="shape"/>
</filter>
<linearGradient id="paint0_linear_3685_24138" x1="44.9363" y1="15.0471" x2="72.9904" y2="63.6346" gradientUnits="userSpaceOnUse">
<stop stop-color="#383D47"/>
<stop offset="1" stop-color="#4F5664"/>
</linearGradient>
<clipPath id="clip0_3685_24138">
<rect width="65.6429" height="92.327" fill="white" transform="translate(11.5898)"/>
</clipPath>
<clipPath id="clip1_3685_24138">
<rect width="99" height="121" fill="white" transform="translate(15.4111 3)"/>
</clipPath>
</defs>
</svg>
