<svg width="86" height="17" viewBox="0 0 86 17" fill="none" xmlns="http://www.w3.org/2000/svg">
<mask id="mask0_1_4" style="mask-type:luminance" maskUnits="userSpaceOnUse" x="0" y="0" width="86" height="17">
<path d="M86 0H0V17H86V0Z" fill="white"/>
</mask>
<g mask="url(#mask0_1_4)">
<path d="M26.5473 7.7619C26.2926 8.2269 25.8928 8.6012 25.3489 8.8864C24.805 9.1717 24.1207 9.313 23.2933 9.313H21.6067V13.128H19.5864V3.1929H23.2942C24.0733 3.1929 24.7371 3.3259 25.2857 3.591C25.8333 3.8561 26.2452 4.2221 26.5194 4.6871C26.7937 5.1522 26.9313 5.6787 26.9313 6.2676C26.9294 6.7987 26.8021 7.2968 26.5473 7.7619ZM24.448 7.328C24.7167 7.0766 24.8515 6.7226 24.8515 6.2676C24.8515 5.2999 24.3039 4.8155 23.2068 4.8155H21.6067V7.705H23.2087C23.7656 7.705 24.1793 7.5793 24.448 7.328Z" fill="white"/>
<path d="M27.8101 7.0199C28.1327 6.4034 28.5697 5.9283 29.1229 5.5962C29.6761 5.2642 30.2934 5.0981 30.9768 5.0981C31.5727 5.0981 32.0953 5.2174 32.5425 5.4541C32.9897 5.6907 33.3476 5.9907 33.6172 6.3502V5.2266H35.6515V13.1115H33.6172V11.9585C33.3578 12.3282 32.9999 12.6345 32.5425 12.8767C32.085 13.1189 31.5588 13.2399 30.9628 13.2399C30.2888 13.2399 29.677 13.0693 29.1238 12.7281C28.5706 12.3869 28.1327 11.9044 27.8101 11.2834C27.4875 10.6615 27.3267 9.9478 27.3267 9.1415C27.3257 8.3435 27.4875 7.6372 27.8101 7.0199ZM33.3281 7.9243C33.1356 7.5776 32.8753 7.3125 32.549 7.1272C32.2217 6.9419 31.8712 6.8492 31.4956 6.8492C31.1209 6.8492 30.7741 6.94 30.4571 7.1198C30.14 7.2996 29.8825 7.5638 29.6854 7.9096C29.4883 8.2564 29.3897 8.6664 29.3897 9.1406C29.3897 9.6158 29.4883 10.0304 29.6854 10.3863C29.8816 10.7422 30.1428 11.0146 30.4645 11.2045C30.7871 11.3944 31.1302 11.4889 31.4965 11.4889C31.8712 11.4889 32.2226 11.3962 32.549 11.2109C32.8753 11.0256 33.1356 10.7596 33.3281 10.4138C33.5205 10.0671 33.6163 9.6525 33.6163 9.1681C33.6163 8.6856 33.5196 8.271 33.3281 7.9243Z" fill="white"/>
<path d="M47.8571 12.8774C47.2946 12.6408 46.8492 12.2986 46.5229 11.8528C46.1956 11.407 46.0274 10.8805 46.0181 10.2724H48.1825C48.2113 10.6805 48.3582 11.0034 48.6232 11.2401C48.8881 11.4767 49.2507 11.596 49.7128 11.596C50.1842 11.596 50.5542 11.485 50.8238 11.2612C51.0935 11.0392 51.2273 10.7466 51.2273 10.3861C51.2273 10.0917 51.1353 9.8495 50.9531 9.6605C50.7708 9.4707 50.5412 9.3221 50.2679 9.212C49.9936 9.1037 49.6161 8.9817 49.1354 8.8487C48.4809 8.6589 47.95 8.4708 47.541 8.2864C47.1319 8.1011 46.7804 7.8214 46.4885 7.4471C46.1947 7.072 46.0478 6.572 46.0478 5.9455C46.0478 5.3576 46.1975 4.8448 46.495 4.4082C46.7935 3.9715 47.2118 3.6377 47.7511 3.4047C48.2894 3.1717 48.9049 3.0552 49.5975 3.0552C50.636 3.0552 51.4802 3.3047 52.1301 3.8028C52.7791 4.3008 53.1379 4.9961 53.2049 5.8877H50.9828C50.9633 5.5465 50.8173 5.264 50.5421 5.0411C50.2679 4.8191 49.9053 4.7063 49.4525 4.7063C49.0583 4.7063 48.7431 4.8063 48.5079 5.0053C48.2717 5.2044 48.1537 5.4942 48.1537 5.8731C48.1537 6.1382 48.2429 6.3592 48.4205 6.5353C48.599 6.7115 48.8193 6.8536 49.0843 6.9619C49.3493 7.071 49.7212 7.1967 50.2028 7.3398C50.8564 7.5297 51.39 7.7196 51.8047 7.9085C52.2184 8.0984 52.5745 8.3837 52.872 8.7625C53.1705 9.1423 53.3192 9.6403 53.3192 10.2577C53.3192 10.7897 53.1798 11.2823 52.9009 11.7382C52.6219 12.1931 52.2129 12.5564 51.6736 12.827C51.1344 13.0976 50.4956 13.2333 49.7547 13.2333C49.0527 13.2333 48.4196 13.1141 47.8571 12.8774Z" fill="white"/>
<path d="M57.0052 6.8473V10.6623C57.0052 10.9274 57.0703 11.12 57.1995 11.2393C57.3297 11.3585 57.5482 11.4172 57.8559 11.4172H58.7931V13.0968H57.5231C55.8208 13.0968 54.9691 12.2804 54.9691 10.6485V6.8473H54.0171V5.2109H54.9691V3.2607H57.0034V5.2109H58.7921V6.8482L57.0052 6.8473Z" fill="white"/>
<path d="M63.1927 5.454C63.6111 5.2174 64.0889 5.0981 64.6282 5.0981V7.1905H64.0945C63.4595 7.1905 62.9816 7.3381 62.659 7.6317C62.3364 7.9252 62.1756 8.4389 62.1756 9.169V13.0978H60.1553V5.2128H62.1756V6.4374C62.4368 6.0191 62.7743 5.6925 63.1927 5.454Z" fill="white"/>
<path d="M65.9587 3.9679C65.7226 3.7459 65.6045 3.468 65.6045 3.135C65.6045 2.8029 65.7226 2.5259 65.9587 2.3021C66.1949 2.0792 66.4896 1.9673 66.8457 1.9673C67.2018 1.9673 67.4974 2.0783 67.7326 2.3021C67.9688 2.525 68.0869 2.8029 68.0869 3.135C68.0869 3.467 67.9688 3.7441 67.7326 3.9679C67.4965 4.1908 67.2018 4.3027 66.8457 4.3027C66.4896 4.3027 66.1939 4.1908 65.9587 3.9679ZM67.8414 5.242V13.127H65.8211V5.242H67.8414Z" fill="white"/>
<path d="M75.998 5.9879C76.585 6.5813 76.877 7.4096 76.877 8.4719V13.0977H74.857V8.7425C74.857 8.1159 74.698 7.6344 74.381 7.2977C74.064 6.9611 73.6309 6.7923 73.0832 6.7923C72.5254 6.7923 72.0856 6.9611 71.763 7.2977C71.4404 7.6344 71.2796 8.1159 71.2796 8.7425V13.0986H69.2593V5.2118H71.2796V6.1933C71.5483 5.8521 71.8932 5.5842 72.3116 5.3889C72.73 5.1953 73.1892 5.0972 73.6894 5.0972C74.642 5.0981 75.412 5.3944 75.998 5.9879Z" fill="white"/>
<path d="M82.898 5.4486C83.35 5.6816 83.706 5.9825 83.966 6.3521V5.2275H86V13.1703C86 13.9014 85.85 14.5526 85.553 15.1269C85.254 15.7011 84.807 16.156 84.211 16.4936C83.614 16.8312 82.894 16.999 82.047 16.999C80.912 16.999 79.981 16.7376 79.255 16.2166C78.529 15.6947 78.117 14.9828 78.021 14.0812H80.027C80.133 14.4416 80.36 14.7288 80.712 14.9425C81.063 15.1562 81.489 15.2626 81.988 15.2626C82.575 15.2626 83.051 15.0892 83.417 14.7425C83.783 14.3958 83.965 13.872 83.965 13.1703V11.9457C83.705 12.3154 83.348 12.6245 82.89 12.8703C82.433 13.1171 81.911 13.24 81.324 13.24C80.65 13.24 80.036 13.0694 79.478 12.7282C78.92 12.3869 78.48 11.9044 78.158 11.2834C77.835 10.6615 77.674 9.9479 77.674 9.1416C77.674 8.3445 77.835 7.6372 78.158 7.0208C78.48 6.4044 78.917 5.9293 79.471 5.5972C80.025 5.2651 80.642 5.0991 81.325 5.0991C81.922 5.0991 82.447 5.2156 82.898 5.4486ZM83.678 7.9253C83.485 7.5785 83.226 7.3134 82.898 7.1281C82.571 6.9429 82.221 6.8502 81.845 6.8502C81.469 6.8502 81.124 6.941 80.807 7.1208C80.49 7.3006 80.232 7.5648 80.035 7.9106C79.838 8.2573 79.739 8.6674 79.739 9.1416C79.739 9.6167 79.838 10.0313 80.035 10.3873C80.231 10.7432 80.492 11.0156 80.814 11.2055C81.137 11.3953 81.48 11.4898 81.846 11.4898C82.221 11.4898 82.572 11.3972 82.899 11.2119C83.227 11.0266 83.486 10.7606 83.679 10.4148C83.871 10.068 83.967 9.6534 83.967 9.1691C83.966 8.6866 83.87 8.2711 83.678 7.9253Z" fill="white"/>
<path d="M42.5879 9.714H42.5926V9.6396C42.5916 9.6653 42.5907 9.6901 42.5879 9.714Z" fill="white"/>
<path d="M44.6166 5.2285V13.1722C44.6166 13.9014 44.4669 14.5545 44.1694 15.1288C43.871 15.703 43.4238 16.158 42.8269 16.4946C42.2309 16.8322 41.5095 17 40.6634 17C40.1576 17 39.6928 16.9486 39.2679 16.8441C38.7417 16.7157 38.2768 16.5074 37.8742 16.2194C37.8733 16.2185 37.8724 16.2185 37.8714 16.2176C37.1453 15.6956 36.7344 14.9838 36.6377 14.0821H38.6431C38.6645 14.1555 38.6905 14.2252 38.7231 14.2922C38.8458 14.5564 39.0476 14.7738 39.3283 14.9435C39.6361 15.1306 40.0015 15.2361 40.4245 15.259C40.4831 15.2618 40.5444 15.2636 40.6058 15.2636C41.1924 15.2636 41.6685 15.0902 42.0338 14.7444C42.3992 14.3977 42.5824 13.873 42.5824 13.1722V11.9476C42.3685 12.2531 42.0868 12.5154 41.7382 12.7374C41.6647 12.7851 41.5866 12.8291 41.5076 12.8722C41.4797 12.8878 41.4509 12.9025 41.4221 12.9172C41.0818 13.086 40.7062 13.1896 40.2962 13.2263C40.2609 13.2272 40.2237 13.2281 40.1874 13.2281C39.2344 13.2281 38.4655 12.9309 37.8789 12.3393C37.4168 11.8696 37.136 11.256 37.0393 10.4956C37.0124 10.2928 36.9984 10.0782 36.9984 9.8544V5.2285H39.0178V9.5847C39.0178 10.2103 39.1768 10.6928 39.4948 11.0285C39.7142 11.2624 39.9894 11.4147 40.3204 11.4871C40.4663 11.5183 40.6244 11.5348 40.7927 11.5348C41.3514 11.5348 41.7912 11.3651 42.1129 11.0285C42.3964 10.7331 42.5554 10.3249 42.588 9.8058H42.5926V5.2285H44.6166Z" fill="white"/>
<path d="M8.98801 13.4879C10.1232 13.3393 11.1738 12.8174 11.9715 12.0074L16.6173 7.3091C16.3217 7.2614 16.0223 7.2394 15.7229 7.2431C14.9066 7.2477 14.1033 7.4467 13.3819 7.8237C12.9272 8.0631 12.5126 8.3713 12.1528 8.7355L10.4393 10.4673C10.4291 10.4783 10.4179 10.4893 10.4067 10.5013C9.86841 11.0461 9.13391 11.3598 8.36231 11.3736C7.59061 11.3873 6.84491 11.1012 6.28711 10.5756L8.07681 12.2982C8.43941 12.6477 8.74721 13.0485 8.98801 13.4879Z" fill="url(#paint0_linear_1_4)"/>
<path d="M4.7601 12.1198L9.5222 16.7034C9.7035 15.6027 9.5157 14.4726 8.9867 13.4865C8.7459 13.0471 8.4391 12.6463 8.0755 12.2977L6.2858 10.5751C6.005 10.3109 5.78 9.9953 5.6238 9.6449C5.4676 9.2945 5.384 8.9175 5.3765 8.535C5.3691 8.1525 5.4388 7.7728 5.582 7.4169C5.7252 7.061 5.9381 6.7372 6.2086 6.4629L4.4645 8.2287C4.1046 8.5937 3.69 8.901 3.2354 9.1404C3.3841 10.276 3.9224 11.3272 4.7601 12.1198Z" fill="url(#paint1_linear_1_4)"/>
<path d="M0 9.6576C0.2957 9.7053 0.595 9.7273 0.8944 9.7227C1.7107 9.7172 2.514 9.5182 3.2355 9.1421C3.6901 8.9027 4.1057 8.5954 4.4646 8.2303L6.2115 6.4645C6.4802 6.1921 6.8 5.9756 7.1543 5.8252C7.5076 5.6757 7.8878 5.5959 8.2727 5.5904C8.6576 5.5858 9.0398 5.6555 9.3977 5.7967C9.7557 5.938 10.0811 6.1471 10.3563 6.4122L8.5898 4.7125C8.2132 4.3511 7.8962 3.9337 7.6517 3.4751C6.509 3.62 5.4501 4.1429 4.6468 4.9583L0 9.6576Z" fill="url(#paint2_linear_1_4)"/>
<path d="M10.439 10.4694L12.1525 8.7376C12.5123 8.3725 12.9269 8.0652 13.3816 7.8258C13.2356 6.7131 12.7159 5.6812 11.9061 4.8942L7.14401 0.309601C7.09571 0.601301 7.0733 0.896599 7.0771 1.192C7.0826 1.9882 7.2797 2.7706 7.6526 3.4769C7.8971 3.9356 8.2141 4.353 8.5907 4.7144L10.3562 6.4141C10.9066 6.9443 11.2246 7.6662 11.2404 8.4257C11.2553 9.1834 10.968 9.9181 10.439 10.4694Z" fill="url(#paint3_linear_1_4)"/>
</g>
<defs>
<linearGradient id="paint0_linear_1_4" x1="17.4429" y1="5.7833" x2="9.54861" y2="11.218" gradientUnits="userSpaceOnUse">
<stop stop-color="#C906F9"/>
<stop offset="0.4483" stop-color="#A803FC"/>
<stop offset="0.8625" stop-color="#8700FF"/>
</linearGradient>
<linearGradient id="paint1_linear_1_4" x1="7.3819" y1="9.1896" x2="5.494" y2="16.4045" gradientUnits="userSpaceOnUse">
<stop stop-color="#0044FF"/>
<stop offset="0.4896" stop-color="#0087FF"/>
<stop offset="1" stop-color="#00CAFF"/>
</linearGradient>
<linearGradient id="paint2_linear_1_4" x1="1.2413" y1="5.7914" x2="5.1949" y2="7.0092" gradientUnits="userSpaceOnUse">
<stop stop-color="#B0FF33"/>
<stop offset="0.4948" stop-color="#55DF20"/>
<stop offset="1" stop-color="#0AC222"/>
</linearGradient>
<linearGradient id="paint3_linear_1_4" x1="6.0423" y1="6.0338" x2="12.7346" y2="4.4227" gradientUnits="userSpaceOnUse">
<stop stop-color="#FF8100"/>
<stop offset="0.0001" stop-color="#FF8100"/>
<stop offset="0.5" stop-color="#FF5D00"/>
<stop offset="1" stop-color="#FF3600"/>
</linearGradient>
</defs>
</svg>
