<svg id="Layer_1" data-name="Layer 1" xmlns="http://www.w3.org/2000/svg" xmlns:xlink="http://www.w3.org/1999/xlink" viewBox="0 0 925 181.954"><defs><style>.cls-1{fill:#FFF;}.cls-2{fill:url(#linear-gradient);}.cls-3{fill:url(#linear-gradient-2);}.cls-4{fill:url(#linear-gradient-3);}.cls-5{fill:url(#linear-gradient-4);}</style><linearGradient id="linear-gradient" x1="-376.3919" y1="358.2817" x2="-462.0339" y2="300.1118" gradientTransform="matrix(1, 0, 0, -1, 564, 417.954)" gradientUnits="userSpaceOnUse"><stop offset="0" stop-color="#c906f9"/><stop offset="0.4483" stop-color="#a803fc"/><stop offset="0.8625" stop-color="#8700ff"/></linearGradient><linearGradient id="linear-gradient-2" x1="-484.598" y1="321.1475" x2="-505.4217" y2="242.6305" gradientTransform="matrix(1, 0, 0, -1, 564, 417.954)" gradientUnits="userSpaceOnUse"><stop offset="0" stop-color="#04f"/><stop offset="0.4896" stop-color="#0087ff"/><stop offset="1" stop-color="#00caff"/></linearGradient><linearGradient id="linear-gradient-3" x1="-550.6493" y1="358.1916" x2="-508.0266" y2="345.2396" gradientTransform="matrix(1, 0, 0, -1, 564, 417.954)" gradientUnits="userSpaceOnUse"><stop offset="0" stop-color="#b0ff33"/><stop offset="0.4948" stop-color="#55df20"/><stop offset="1" stop-color="#0ac222"/></linearGradient><linearGradient id="linear-gradient-4" x1="-499.0098" y1="355.5509" x2="-426.9232" y2="372.672" gradientTransform="matrix(1, 0, 0, -1, 564, 417.954)" gradientUnits="userSpaceOnUse"><stop offset="0" stop-color="#ff8100"/><stop offset="0.5" stop-color="#ff5d00"/><stop offset="1" stop-color="#ff3600"/></linearGradient></defs><path class="cls-1" d="M285.54,81.244a30.2288,30.2288,0,0,1-12.89,12.26q-8.775,4.665-22.11,4.65H232.4v41.59H210.67V31.434h39.88q12.57,0,21.42,4.34a30.2778,30.2778,0,0,1,13.27,11.95,33.6184,33.6184,0,0,1,4.43,17.23A33.9874,33.9874,0,0,1,285.54,81.244Zm-22.58-4.73q4.335-4.11,4.34-11.56,0-15.825-17.69-15.83H232.4v31.5h17.23Q258.615,80.624,262.96,76.514Z"/><path class="cls-1" d="M299.119,73.1537a38.1475,38.1475,0,0,1,14.12-15.52,37.5917,37.5917,0,0,1,19.94-5.43,35.1227,35.1227,0,0,1,16.84,3.88,34.2378,34.2378,0,0,1,11.56,9.77v-12.25h21.88v85.96h-21.88v-12.57a32.3,32.3,0,0,1-11.56,10.01,35.37,35.37,0,0,1-16.99,3.96,36.5311,36.5311,0,0,1-19.78-5.58,39.1471,39.1471,0,0,1-14.13-15.75,50.532,50.532,0,0,1-5.2-23.35A49.6028,49.6028,0,0,1,299.119,73.1537Zm59.35,9.86a21.93,21.93,0,0,0-8.38-8.69,22.3734,22.3734,0,0,0-11.33-3.03,21.82,21.82,0,0,0-19.47,11.56,26.9923,26.9923,0,0,0-3.18,13.42,27.8652,27.8652,0,0,0,3.18,13.58,22.8627,22.8627,0,0,0,8.38,8.92,21.279,21.279,0,0,0,11.1,3.1,22.3372,22.3372,0,0,0,11.32-3.03,21.9952,21.9952,0,0,0,8.38-8.69,27.863,27.863,0,0,0,3.1-13.58A27.9482,27.9482,0,0,0,358.469,83.0137Z"/><path class="cls-1" d="M514.739,137.014a33.4232,33.4232,0,0,1-14.35-11.17,29.365,29.365,0,0,1-5.43-17.23h23.28a15.0152,15.0152,0,0,0,4.74,10.55q4.275,3.87,11.72,3.88,7.605,0,11.951-3.65a11.8245,11.8245,0,0,0,4.339-9.54,11.0216,11.0216,0,0,0-2.95-7.91,20.8063,20.8063,0,0,0-7.37-4.89,125.2152,125.2152,0,0,0-12.18-3.96,131.625,131.625,0,0,1-17.15-6.13,29.939,29.939,0,0,1-11.32-9.15q-4.74-6.135-4.74-16.37a29.3384,29.3384,0,0,1,4.81-16.76,30.6322,30.6322,0,0,1,13.51-10.94,49.0014,49.0014,0,0,1,19.861-3.81q16.755,0,27.239,8.15,10.47,8.145,11.56,22.73h-23.9a12.3906,12.3906,0,0,0-4.74-9.23c-2.95-2.42-6.849-3.65-11.719-3.65q-6.36,0-10.161,3.26-3.81,3.255-3.81,9.46a9.8294,9.8294,0,0,0,2.87,7.22,21.65,21.65,0,0,0,7.14,4.65c2.85,1.19,6.85,2.56,12.03,4.12a128.74,128.74,0,0,1,17.23,6.2,30.943,30.943,0,0,1,11.48,9.31q4.815,6.21,4.81,16.3a30.6486,30.6486,0,0,1-4.5,16.14,31.8025,31.8025,0,0,1-13.2,11.87q-8.7,4.425-20.639,4.43A51.583,51.583,0,0,1,514.739,137.014Z"/><path class="cls-1" d="M613.14,71.274v41.59q0,4.335,2.089,6.29c1.4,1.3,3.75,1.94,7.06,1.94H632.37v18.31H618.71q-27.465,0-27.47-26.69V71.274H581V53.434h10.24V32.174h21.88v21.26h19.24v17.85Z"/><path class="cls-1" d="M679.69,56.0837a30.4716,30.4716,0,0,1,15.44-3.88v22.81h-5.739q-10.245,0-15.44,4.81c-3.47,3.2-5.201,8.8-5.201,16.76v42.83H647.021v-85.96H668.75v13.35A30.76,30.76,0,0,1,679.69,56.0837Z"/><path class="cls-1" d="M709.44,39.8836a12.0265,12.0265,0,0,1-3.81-9.08,12.0725,12.0725,0,0,1,3.81-9.08,14.2923,14.2923,0,0,1,19.08,0,12.0571,12.0571,0,0,1,3.81,9.08,12.0725,12.0725,0,0,1-3.81,9.08,14.2923,14.2923,0,0,1-19.08,0Zm20.25,13.89v85.96H707.96v-85.96Z"/><path class="cls-1" d="M817.42,61.904q9.465,9.705,9.46,27.08v50.43H805.15V91.934q0-10.245-5.12-15.75-5.115-5.505-13.96-5.51-9,0-14.2,5.51-5.205,5.505-5.2,15.75v47.49H744.94V53.444h21.73v10.7a30.12,30.12,0,0,1,11.1-8.77,34.4789,34.4789,0,0,1,14.82-3.18Q807.965,52.209,817.42,61.904Z"/><path class="cls-1" d="M891.64,56.0237a31.2084,31.2084,0,0,1,11.48,9.85v-12.26H925v86.59a46.17,46.17,0,0,1-4.81,21.33,35.7948,35.7948,0,0,1-14.43,14.9q-9.63,5.52-23.28,5.51-18.315,0-30.03-8.53a31.6308,31.6308,0,0,1-13.27-23.28h21.57a16.0652,16.0652,0,0,0,7.37,9.39,25.6787,25.6787,0,0,0,13.73,3.49q9.465,0,15.37-5.67,5.895-5.67,5.89-17.14v-13.35a32.8519,32.8519,0,0,1-11.56,10.08,34.5168,34.5168,0,0,1-16.84,4.03,36.925,36.925,0,0,1-19.86-5.58,38.9468,38.9468,0,0,1-14.2-15.75,50.532,50.532,0,0,1-5.2-23.35,49.684,49.684,0,0,1,5.2-23.12,38.1008,38.1008,0,0,1,14.13-15.52,37.5917,37.5917,0,0,1,19.94-5.43A36.0166,36.0166,0,0,1,891.64,56.0237Zm8.38,27a21.8632,21.8632,0,0,0-8.38-8.69,22.3734,22.3734,0,0,0-11.33-3.03,21.82,21.82,0,0,0-19.47,11.56,26.9923,26.9923,0,0,0-3.18,13.42,27.8652,27.8652,0,0,0,3.18,13.58,22.8627,22.8627,0,0,0,8.38,8.92,21.279,21.279,0,0,0,11.1,3.1,22.4,22.4,0,0,0,11.33-3.03,21.9281,21.9281,0,0,0,8.38-8.69,27.863,27.863,0,0,0,3.1-13.58A27.922,27.922,0,0,0,900.02,83.0237Z"/><path class="cls-1" d="M458.069,102.524h.05v-.81C458.109,101.994,458.099,102.264,458.069,102.524Z"/><path class="cls-1" d="M479.889,53.6241v86.6a46.2286,46.2286,0,0,1-4.81,21.33,35.6781,35.6781,0,0,1-14.44,14.89q-9.615,5.52-23.27,5.51a61.9554,61.9554,0,0,1-15.01-1.7,42.7159,42.7159,0,0,1-14.99-6.81c-.01-.01-.02-.01-.03-.02a31.6621,31.6621,0,0,1-13.27-23.28h21.57a14.5892,14.5892,0,0,0,.86,2.29,16.22,16.22,0,0,0,6.51,7.1,24.686,24.686,0,0,0,11.79,3.44c.63.03,1.29.05,1.95.05q9.465,0,15.36-5.66,5.895-5.67,5.9-17.14v-13.35a31.7694,31.7694,0,0,1-9.08,8.61c-.79.52-1.63,1-2.48,1.47-.3.17-.61.33-.92.49h-.01a33.3923,33.3923,0,0,1-12.1,3.37c-.38.01-.78.02-1.17.02q-15.375,0-24.83-9.69-7.455-7.68-9.03-20.1a53.8383,53.8383,0,0,1-.44-6.99v-50.43h21.72v47.49c0,6.82,1.71,12.08,5.13,15.74a16.7063,16.7063,0,0,0,8.88,5,24.0139,24.0139,0,0,0,5.08.52q9.015,0,14.2-5.52,4.575-4.83,5.11-13.33h.05v-49.9Z"/><path class="cls-2" d="M96.67,143.67a54.7937,54.7937,0,0,0,32.09-16.14l49.97-51.22a55.3593,55.3593,0,0,0-9.62-.72,53.7477,53.7477,0,0,0-38.4,16.27l-18.43,18.88c-.11.12-.23.24-.35.37a31.512,31.512,0,0,1-44.31.81L86.87,130.7A54.15,54.15,0,0,1,96.67,143.67Z"/><path class="cls-3" d="M51.2008,128.75l51.22,49.97a55.8355,55.8355,0,0,0-5.76-35.07,53.6434,53.6434,0,0,0-9.8-12.96l-19.25-18.78a31.5152,31.5152,0,0,1-.83-44.83l-18.76,19.25a53.7108,53.7108,0,0,1-13.22,9.94A54.7232,54.7232,0,0,0,51.2008,128.75Z"/><path class="cls-4" d="M0,101.91a54.3883,54.3883,0,0,0,9.62.71A54.7069,54.7069,0,0,0,34.8,96.29a53.5251,53.5251,0,0,0,13.22-9.94L66.81,67.1a31.4981,31.4981,0,0,1,44.58-.57L92.39,48A53.7164,53.7164,0,0,1,82.3,34.51,54.8147,54.8147,0,0,0,49.98,50.68Z"/><path class="cls-5" d="M112.28,110.76l18.43-18.88a53.7108,53.7108,0,0,1,13.22-9.94,54.7233,54.7233,0,0,0-15.87-31.96L76.8405,0a55.3593,55.3593,0,0,0-.72,9.62,54.7241,54.7241,0,0,0,6.19,24.91,53.7159,53.7159,0,0,0,10.09,13.49l18.99,18.53a31.4908,31.4908,0,0,1,.89,44.21Z"/></svg>
