<svg width="24" height="25" viewBox="0 0 24 25" fill="none" xmlns="http://www.w3.org/2000/svg">
<g id="accounts/accounts-filled">
<path id="Union" fill-rule="evenodd" clip-rule="evenodd" d="M16.9993 7.24304V9.24273C16.9993 10.3471 16.104 11.2424 14.9996 11.2424C13.8952 11.2424 12.9999 10.3471 12.9999 9.24273V7.24304C12.9999 6.13864 13.8952 5.24335 14.9996 5.24335C16.104 5.24335 16.9993 6.13864 16.9993 7.24304ZM11.0702 6.49432C11.4207 4.64338 13.0467 3.24365 14.9996 3.24365C17.2084 3.24365 18.999 5.03424 18.999 7.24304V9.24273C18.999 11.4515 17.2084 13.2421 14.9996 13.2421C13.8794 13.2421 12.8668 12.7816 12.1408 12.0396C12.1407 12.0396 12.1407 12.0396 12.1407 12.0396C11.4351 11.3185 11.0002 10.3315 11.0002 9.24288V7.24318C11.0002 7.10508 11.0072 6.96862 11.0208 6.83412C11.0325 6.71935 11.049 6.60601 11.0702 6.49432ZM10.3272 4.34187C10.0621 4.27767 9.78522 4.24364 9.50041 4.24364C7.56771 4.24364 6.00094 5.8104 6.00094 7.7431V9.7428C6.00094 11.6755 7.56771 13.2423 9.50041 13.2423C10.0088 13.2423 10.4918 13.1339 10.9277 12.9389C10.0408 11.9625 9.50041 10.6658 9.50041 9.24288V7.24318C9.50041 6.17826 9.80311 5.18404 10.3272 4.34187ZM8.38917 14.2421H6.83415C3.61298 14.2421 1.00171 16.8534 1.00171 20.0745C1.00171 20.7188 1.52396 21.241 2.1682 21.241H5.76906C5.59736 20.8887 5.50102 20.4929 5.50102 20.0745C5.50102 17.6959 6.63372 15.5817 8.38917 14.2421ZM17.1659 16.2417H12.8332C11.0026 16.2417 9.47175 17.5251 9.09132 19.2413H20.9078C20.5274 17.5251 18.9965 16.2417 17.1659 16.2417ZM12.8332 14.242C9.61208 14.242 7.0008 16.8533 7.0008 20.0745C7.0008 20.7187 7.52306 21.241 8.16729 21.241H21.8319C22.4761 21.241 22.9984 20.7187 22.9984 20.0745C22.9984 16.8533 20.3871 14.242 17.1659 14.242H12.8332Z" fill="white"/>
</g>
</svg>
