<svg width="24" height="24" viewBox="0 0 24 24" fill="none" xmlns="http://www.w3.org/2000/svg">
<path d="M7 20.233C10.017 22.254 13.983 22.254 17 20.233" stroke="white" stroke-width="1.5" stroke-linecap="round" stroke-linejoin="round"/>
<path d="M8.02023 4.67999C4.76223 6.28199 2.77923 9.71699 3.02023 13.34" stroke="white" stroke-width="1.5" stroke-linecap="round" stroke-linejoin="round"/>
<path d="M15.98 4.67999C19.238 6.28199 21.221 9.71699 20.98 13.34" stroke="white" stroke-width="1.5" stroke-linecap="round" stroke-linejoin="round"/>
<path d="M5.26671 16.1903C5.8525 16.7761 5.8525 17.7258 5.26671 18.3116C4.68093 18.8974 3.73118 18.8974 3.14539 18.3116C2.55961 17.7258 2.55961 16.7761 3.14539 16.1903C3.73118 15.6045 4.68092 15.6045 5.26671 16.1903" stroke="white" stroke-width="1.5" stroke-linecap="round" stroke-linejoin="round"/>
<path d="M20.8487 16.1903C21.4345 16.7761 21.4345 17.7258 20.8487 18.3116C20.263 18.8974 19.3132 18.8974 18.7274 18.3116C18.1416 17.7258 18.1416 16.7761 18.7274 16.1903C19.3132 15.6045 20.263 15.6045 20.8487 16.1903" stroke="white" stroke-width="1.5" stroke-linecap="round" stroke-linejoin="round"/>
<path fill-rule="evenodd" clip-rule="evenodd" d="M15.8693 13.583L12.9763 8.88099C12.5273 8.15199 11.4673 8.15199 11.0193 8.88099L8.12626 13.583C7.65526 14.349 8.20626 15.334 9.10526 15.334H14.8913C15.7893 15.334 16.3403 14.349 15.8693 13.583V13.583Z" stroke="white" stroke-width="1.5" stroke-linecap="round" stroke-linejoin="round"/>
<path d="M13.0577 2.69033C13.6435 3.27612 13.6435 4.22586 13.0577 4.81165C12.4719 5.39744 11.5222 5.39744 10.9364 4.81165C10.3506 4.22587 10.3506 3.27612 10.9364 2.69033C11.5222 2.10455 12.4719 2.10455 13.0577 2.69033" stroke="white" stroke-width="1.5" stroke-linecap="round" stroke-linejoin="round"/>
</svg>
