<svg width="25" height="24" viewBox="0 0 25 24" fill="none" xmlns="http://www.w3.org/2000/svg">
<path d="M5.4826 17.388C7.12861 19.574 9.73561 21 12.6666 21C17.6166 21 21.6666 16.95 21.6666 12C21.6666 7.05 17.6166 3 12.6666 3" stroke="#A2A2A4" stroke-width="1.5" stroke-linecap="round" stroke-linejoin="round"/>
<path d="M5.48263 17.388C4.34863 15.882 3.66663 14.019 3.66663 12C3.66663 7.05 7.71663 3 12.6666 3" stroke="#A2A2A4" stroke-width="1.5" stroke-linecap="round" stroke-linejoin="round"/>
<path d="M12.4166 7V8.25" stroke="#A2A2A4" stroke-width="1.5" stroke-linecap="round" stroke-linejoin="round"/>
<path d="M12.4166 17V15.75" stroke="#A2A2A4" stroke-width="1.5" stroke-linecap="round" stroke-linejoin="round"/>
<path d="M14.9036 10C14.8386 9.024 14.0336 8.25 13.0416 8.25H11.6716C10.7016 8.25 9.91663 9.036 9.91663 10.005C9.91663 10.81 10.4646 11.512 11.2446 11.708L13.5876 12.296C14.3686 12.492 14.9156 13.194 14.9156 13.999C14.9156 14.969 14.1296 15.754 13.1606 15.754H11.7906C10.7966 15.754 9.99163 14.978 9.92763 14" stroke="#A2A2A4" stroke-width="1.5" stroke-linecap="round" stroke-linejoin="round"/>
</svg>
