<svg width="25" height="24" viewBox="0 0 25 24" fill="none" xmlns="http://www.w3.org/2000/svg">
<g id="user">
<path id="Union" fill-rule="evenodd" clip-rule="evenodd" d="M14.5 7.00049V9.00049C14.5 10.1051 13.6046 11.0005 12.5 11.0005C11.3954 11.0005 10.5 10.1051 10.5 9.00049V7.00049C10.5 5.89592 11.3954 5.00049 12.5 5.00049C13.6046 5.00049 14.5 5.89592 14.5 7.00049ZM8.5 7.00049C8.5 4.79135 10.2909 3.00049 12.5 3.00049C14.7091 3.00049 16.5 4.79135 16.5 7.00049V9.00049C16.5 11.2096 14.7091 13.0005 12.5 13.0005C10.2909 13.0005 8.5 11.2096 8.5 9.00049V7.00049ZM4.58392 19.0005C4.95835 17.2157 6.54141 15.8755 8.4375 15.8755H16.5625C18.4586 15.8755 20.0417 17.2157 20.4161 19.0005H4.58392ZM2.5 19.813C2.5 16.5338 5.15831 13.8755 8.4375 13.8755H16.5625C19.8417 13.8755 22.5 16.5338 22.5 19.813C22.5 20.4688 21.9683 21.0005 21.3125 21.0005H3.6875C3.03166 21.0005 2.5 20.4688 2.5 19.813Z" fill="white"/>
</g>
</svg>
