<svg width="24" height="24" viewBox="0 0 24 24" fill="none" xmlns="http://www.w3.org/2000/svg">
<path d="M18.3639 5.63602C21.8787 9.15074 21.8787 14.8492 18.3639 18.3639C14.8492 21.8786 9.15074 21.8786 5.63604 18.3639C2.12132 14.8492 2.12132 9.15072 5.63604 5.63602C9.15076 2.1213 14.8492 2.1213 18.3639 5.63602" stroke="white" stroke-width="1.5" stroke-linecap="round" stroke-linejoin="round"/>
<path fill-rule="evenodd" clip-rule="evenodd" d="M13.7048 15.333H10.8978C10.2798 15.333 9.77783 14.832 9.77783 14.213V12.051H13.7048C14.6038 12.051 15.3338 12.78 15.3338 13.68V13.705C15.3328 14.604 14.6038 15.333 13.7048 15.333V15.333Z" stroke="white" stroke-width="1.5" stroke-linecap="round" stroke-linejoin="round"/>
<path fill-rule="evenodd" clip-rule="evenodd" d="M13.3098 12.051H9.77783V9.80398C9.77783 9.17598 10.2868 8.66698 10.9148 8.66698H13.3098C14.2228 8.66698 14.9638 9.40698 14.9638 10.321V10.398C14.9638 11.311 14.2238 12.051 13.3098 12.051Z" stroke="white" stroke-width="1.5" stroke-linecap="round" stroke-linejoin="round"/>
<path d="M10.8899 8.66998H8.66992" stroke="white" stroke-width="1.5" stroke-linecap="round" stroke-linejoin="round"/>
<path d="M10.8999 15.33H8.66992" stroke="white" stroke-width="1.5" stroke-linecap="round" stroke-linejoin="round"/>
<path d="M13.23 7.55998V8.66998" stroke="white" stroke-width="1.5" stroke-linecap="round" stroke-linejoin="round"/>
<path d="M10.5 7.55998V8.66998" stroke="white" stroke-width="1.5" stroke-linecap="round" stroke-linejoin="round"/>
<path d="M10.5 16.44V15.33" stroke="white" stroke-width="1.5" stroke-linecap="round" stroke-linejoin="round"/>
<path d="M13.23 16.44V15.33" stroke="white" stroke-width="1.5" stroke-linecap="round" stroke-linejoin="round"/>
</svg>
