<svg xmlns="http://www.w3.org/2000/svg" width="24" height="24" viewBox="0 0 24 24" fill="none">
<path d="M11.9999 0C5.37256 0 0 5.37258 0 12C0 18.6274 5.37256 24 11.9999 24C18.6273 24 23.9999 18.6274 23.9999 12C24.0092 8.82665 22.7574 5.77959 20.5201 3.52915C18.2827 1.27871 15.243 0.0092338 12.0697 0H11.9999Z" fill="#23292F"/>
<path d="M8.67227 13.8545C10.4973 12.0485 13.4563 12.0485 15.2826 13.8545L20.3549 18.875H17.933L14.0717 15.0537C12.911 13.9098 11.0469 13.9099 9.88614 15.0537L6.02286 18.875H3.60001L8.67227 13.8545ZM9.88321 8.79004C11.044 9.93405 12.908 9.93405 14.0688 8.79004L17.9008 5H20.3217L15.2826 9.99023C13.4577 11.796 10.4986 11.796 8.67227 9.99023L3.63126 5H6.05411L9.88321 8.79004Z" fill="white"/>
</svg>

