<svg width="24" height="24" viewBox="0 0 24 24" fill="none" xmlns="http://www.w3.org/2000/svg">
<path d="M4.81599 17.388C6.46199 19.574 9.06899 21 12 21C16.95 21 21 16.95 21 12C21 7.05 16.95 3 12 3" stroke="#A2A2A4" stroke-width="1.5" stroke-linecap="round" stroke-linejoin="round"/>
<path d="M4.816 17.388C3.682 15.882 3 14.019 3 12C3 7.05 7.05 3 12 3" stroke="#A2A2A4" stroke-width="1.5" stroke-linecap="round" stroke-linejoin="round"/>
<path d="M15.5347 7.50055H16.981L13.9718 10.4973C13.4475 11.0184 12.7384 11.3109 11.9994 11.3109C11.2604 11.3109 10.5513 11.0184 10.0269 10.4973L7.01776 7.50055H8.46411L10.7501 9.77719C11.0823 10.1071 11.5314 10.2923 11.9994 10.2923C12.4674 10.2923 12.9165 10.1071 13.2486 9.77719L15.5347 7.50055Z" fill="#A2A2A4"/>
<path d="M7 15.833H8.44635L10.7507 13.5379C11.0829 13.208 11.532 13.0229 12 13.0229C12.468 13.0229 12.9171 13.208 13.2493 13.5379L15.5536 15.833H17L13.9724 12.8178C13.4481 12.2967 12.739 12.0043 12 12.0043C11.261 12.0043 10.5519 12.2967 10.0276 12.8178L7 15.833Z" fill="#A2A2A4"/>
</svg>
