<svg width="25" height="24" viewBox="0 0 25 24" fill="none" xmlns="http://www.w3.org/2000/svg">
<path d="M3.33435 9C3.33435 10.105 5.57235 11 8.33435 11" stroke="#A2A2A4" stroke-width="1.5" stroke-linecap="round" stroke-linejoin="round"/>
<path d="M8.33335 15C5.57235 15 3.33435 14.105 3.33435 13" stroke="#A2A2A4" stroke-width="1.5" stroke-linecap="round" stroke-linejoin="round"/>
<path d="M13.3324 5H13.3334V8" stroke="#A2A2A4" stroke-width="1.5" stroke-linecap="round" stroke-linejoin="round"/>
<path d="M11.3344 16C11.3344 17.105 13.5724 18 16.3344 18C19.0964 18 21.3344 17.105 21.3344 16" stroke="#A2A2A4" stroke-width="1.5" stroke-linecap="round" stroke-linejoin="round"/>
<path d="M11.3344 12C11.3344 13.105 13.5724 14 16.3344 14C19.0964 14 21.3344 13.105 21.3344 12" stroke="#A2A2A4" stroke-width="1.5" stroke-linecap="round" stroke-linejoin="round"/>
<path d="M16.3334 10C13.5734 10 11.3334 10.895 11.3354 12" stroke="#A2A2A4" stroke-width="1.5" stroke-linecap="round" stroke-linejoin="round"/>
<path d="M11.3344 12V20C11.3344 21.105 13.5724 22 16.3344 22" stroke="#A2A2A4" stroke-width="1.5" stroke-linecap="round" stroke-linejoin="round"/>
<path d="M16.3334 10C19.0934 10 21.3334 10.895 21.3314 12" stroke="#A2A2A4" stroke-width="1.5" stroke-linecap="round" stroke-linejoin="round"/>
<path d="M21.3334 12V20C21.3334 21.105 19.0954 22 16.3334 22" stroke="#A2A2A4" stroke-width="1.5" stroke-linecap="round" stroke-linejoin="round"/>
<path d="M8.33337 19C5.57237 19 3.33337 18.105 3.33337 17" stroke="#A2A2A4" stroke-width="1.5" stroke-linecap="round" stroke-linejoin="round"/>
<path fill-rule="evenodd" clip-rule="evenodd" d="M8.33337 7C11.0948 7 13.3334 6.10457 13.3334 5C13.3334 3.89543 11.0948 3 8.33337 3C5.57195 3 3.33337 3.89543 3.33337 5C3.33337 6.10457 5.57195 7 8.33337 7Z" stroke="#A2A2A4" stroke-width="1.5" stroke-linecap="round" stroke-linejoin="round"/>
<path d="M3.33337 5V17" stroke="#A2A2A4" stroke-width="1.5" stroke-linecap="round" stroke-linejoin="round"/>
</svg>
