<svg viewBox="0 0 104 26" fill="none" xmlns="http://www.w3.org/2000/svg">
<path d="M42.5555 11.6171L43.8892 8.91403H46.1277L43.8581 12.9485L46.1855 17.0771H43.9403L42.5866 14.3158L41.2306 17.0771H38.9922L41.3196 12.9485L39.05 8.91403H41.2907L42.5555 11.6171ZM49.6843 14.1701H48.624V17.0525H46.6834V8.91403H49.8621C50.8335 8.91403 51.5693 9.12248 52.1006 9.56851C52.3695 9.78381 52.5843 10.06 52.7276 10.3746C52.8709 10.6893 52.9386 11.0336 52.9253 11.3795C52.942 11.8787 52.8196 12.3726 52.5718 12.8051C52.3122 13.2073 51.9444 13.5268 51.5115 13.7263L53.1898 17.0211V17.1108H51.098L49.6843 14.1701ZM48.6529 12.6571H49.891C50.0419 12.6731 50.1943 12.6546 50.3371 12.603C50.4799 12.5514 50.6093 12.468 50.7157 12.359C50.9118 12.1278 51.0162 11.8316 51.0091 11.5275C51.0199 11.3759 50.9994 11.2238 50.9489 11.0807C50.8984 10.9375 50.819 10.8065 50.7157 10.6959C50.6075 10.5897 50.4778 10.5082 50.3354 10.4571C50.1931 10.4061 50.0415 10.3866 49.891 10.4001H48.6529V12.6571ZM55.9595 14.2889V17.0525H54.0189V8.91403H57.2599C57.8297 8.90225 58.3943 9.02425 58.9093 9.27041C59.3606 9.4898 59.7447 9.82825 60.0207 10.2499C60.2873 10.6871 60.4203 11.1938 60.4031 11.7068C60.4149 12.0684 60.3441 12.4279 60.1961 12.7575C60.0481 13.0871 59.8268 13.3779 59.5495 13.6075C58.9893 14.0827 58.2157 14.3202 57.2221 14.3202H55.9573L55.9595 14.2889ZM55.9595 12.7759H57.2243C57.3799 12.7918 57.537 12.7733 57.6848 12.7219C57.8326 12.6704 57.9675 12.5871 58.0801 12.4778C58.1851 12.3745 58.2659 12.2488 58.3167 12.11C58.3674 11.9712 58.3869 11.8227 58.3736 11.6754C58.3937 11.3428 58.2889 11.0147 58.0801 10.7564C57.9783 10.6381 57.8512 10.5446 57.7083 10.4829C57.5655 10.4211 57.4107 10.3928 57.2554 10.4001H55.9595V12.7759ZM65.9625 15.5664H69.3569V17.0816H63.9997V8.91403H65.9447V15.5664H65.9625ZM75.0941 13.6075H72.0399V15.5664H75.6632V17.0816H70.106V8.91403H75.7032V10.4292H72.0799V12.1506H75.1141L75.0941 13.6075ZM76.3301 17.0525V8.91403H78.9508C79.6377 8.90673 80.3147 9.07893 80.9159 9.41386C81.4868 9.73717 81.9507 10.2228 82.2496 10.8102C82.5701 11.4246 82.7423 12.1065 82.752 12.8006V13.1861C82.7662 13.8878 82.6041 14.5818 82.2807 15.2033C81.9675 15.7912 81.4988 16.28 80.9267 16.6155C80.3545 16.9511 79.7014 17.1201 79.0398 17.104H76.3412L76.3301 17.0525ZM78.2751 10.4292V15.5664H78.942C79.1911 15.5804 79.4399 15.5337 79.6674 15.4303C79.8949 15.3269 80.0943 15.1699 80.249 14.9725C80.5454 14.5586 80.6936 13.9646 80.6936 13.1906V12.8342C80.6936 12.0318 80.5454 11.4378 80.249 11.0523C80.0906 10.8523 79.8866 10.6939 79.6544 10.5905C79.4221 10.487 79.1686 10.4417 78.9153 10.4583H78.2684L78.2751 10.4292ZM90.2142 16.0708C89.8426 16.4458 89.3843 16.7215 88.8805 16.8732C88.2642 17.0827 87.6168 17.1835 86.9666 17.1713C85.9063 17.1713 85.0505 16.844 84.4325 16.1895C83.8145 15.5351 83.4611 14.6206 83.4011 13.4573V12.7445C83.3902 12.0207 83.5311 11.3028 83.8145 10.6376C84.0761 10.0653 84.495 9.58067 85.0216 9.24127C85.5749 8.91451 86.2077 8.74995 86.8488 8.7661C87.8491 8.7661 88.6449 9.00368 89.205 9.47886C89.7652 9.95403 90.0942 10.6377 90.1764 11.5566H88.2914C88.266 11.1865 88.108 10.8384 87.8468 10.5771C87.5852 10.3639 87.2533 10.2582 86.9177 10.2813C86.689 10.2756 86.4627 10.3301 86.2612 10.4394C86.0597 10.5486 85.8899 10.7089 85.7684 10.9044C85.465 11.4505 85.3223 12.0725 85.3572 12.6975V13.2018C85.3572 14.0042 85.5039 14.6273 85.7684 15.0442C86.033 15.4611 86.4753 15.6673 87.0644 15.6673C87.478 15.6961 87.8875 15.5691 88.2136 15.3109V14.0333H86.8599V12.6885H90.1586V16.0708H90.2142ZM96.2538 13.6052H93.1907V15.5642H96.8118V17.0794H91.2545V8.91403H96.8518V10.4292H93.2285V12.1506H96.2916V13.6075L96.2538 13.6052ZM100.524 14.1678H99.4637V17.0525H97.4897V8.91403H100.671C101.644 8.91403 102.38 9.12248 102.909 9.56851C103.178 9.78345 103.394 10.0596 103.537 10.3743C103.68 10.689 103.748 11.0335 103.734 11.3795C103.751 11.8787 103.628 12.3726 103.38 12.8051C103.121 13.2073 102.753 13.5268 102.32 13.7263L104.001 17.0211V17.1108H101.909L100.524 14.1678ZM99.4637 12.6549H100.7C100.85 12.6709 101.003 12.6524 101.146 12.6008C101.288 12.5492 101.418 12.4658 101.524 12.3568C101.717 12.1251 101.819 11.83 101.811 11.5275C101.821 11.376 101.801 11.224 101.75 11.0809C101.7 10.9379 101.62 10.8068 101.518 10.6959C101.41 10.5905 101.282 10.5096 101.14 10.4586C100.999 10.4075 100.849 10.3876 100.7 10.4001H99.4614L99.4637 12.6549Z" fill="currentColor"/>
<path d="M7.86904 1.6138H8.49145V1.98722e-06H7.86904C7.20915 -0.000587627 6.55562 0.130033 5.94585 0.384391C5.33607 0.638748 4.78203 1.01185 4.31542 1.48234C3.8488 1.95284 3.47878 2.51149 3.22652 3.12633C2.97426 3.74117 2.84472 4.40014 2.8453 5.06552V8.74138C2.84664 9.5197 2.55266 10.2691 2.02362 10.8358C1.49458 11.4026 0.770569 11.7439 0 11.7897L0.0444578 12.5966L0 13.4034C0.770569 13.4492 1.49458 13.7905 2.02362 14.3573C2.55266 14.924 2.84664 15.6734 2.8453 16.4517V20.6879C2.84294 22.0936 3.39418 23.4428 4.37787 24.4388C5.36157 25.4349 6.69723 25.9964 8.09133 26V24.3862C7.12465 24.3856 6.19773 23.9981 5.51419 23.3089C4.83065 22.6197 4.44637 21.6851 4.44578 20.7103V16.4517C4.44646 15.6914 4.26244 14.9425 3.90982 14.2705C3.5572 13.5985 3.0467 13.0237 2.42295 12.5966C3.04492 12.1676 3.55407 11.5924 3.90648 10.9208C4.25888 10.2492 4.44397 9.50121 4.44578 8.74138V5.06552C4.44988 4.15134 4.81186 3.27577 5.45295 2.62934C6.09405 1.98291 6.9624 1.61792 7.86904 1.6138Z" fill="currentColor"/>
<path d="M26.3646 1.61379H25.7422V0H26.3646C27.6938 0.00356254 28.9673 0.539108 29.9051 1.48895C30.843 2.43879 31.3685 3.72521 31.3661 5.06552V8.74138C31.3648 9.5197 31.6587 10.2691 32.1878 10.8358C32.7168 11.4026 33.4408 11.7439 34.2114 11.7897L34.1669 12.5966L34.2114 13.4034C33.4408 13.4492 32.7168 13.7905 32.1878 14.3573C31.6587 14.924 31.3648 15.6734 31.3661 16.4517V20.6879C31.3685 22.0936 30.8172 23.4428 29.8335 24.4388C28.8498 25.4349 27.5142 25.9964 26.1201 26V24.3862C27.0868 24.3856 28.0137 23.9981 28.6972 23.3089C29.3808 22.6197 29.765 21.6851 29.7656 20.7103V16.4517C29.7649 15.6914 29.949 14.9425 30.3016 14.2705C30.6542 13.5985 31.1647 13.0237 31.7884 12.5966C31.1665 12.1676 30.6573 11.5924 30.3049 10.9208C29.9525 10.2492 29.7674 9.50121 29.7656 8.74138V5.06552C29.768 4.61346 29.6817 4.16538 29.5119 3.74699C29.3421 3.3286 29.092 2.94815 28.7761 2.62745C28.4601 2.30675 28.0844 2.05212 27.6706 1.87817C27.2567 1.70422 26.8129 1.61438 26.3646 1.61379Z" fill="currentColor"/>
<path fill-rule="evenodd" clip-rule="evenodd" d="M25.3822 6.16644H23.1244L19.5559 9.72497C18.4789 10.7989 16.7329 10.7989 15.656 9.72497L12.0875 6.16644H9.82973L14.5271 10.8507C16.2275 12.5464 18.9844 12.5464 20.6848 10.8507L25.3822 6.16644ZM9.7998 19.1925H12.0576L15.6551 15.605C16.732 14.5311 18.478 14.5311 19.555 15.605L23.1525 19.1925H25.4103L20.6839 14.4793C18.9835 12.7836 16.2266 12.7836 14.5262 14.4793L9.7998 19.1925Z" fill="currentColor"/>
</svg>
